<svg width="156" height="25" viewBox="0 0 156 25" fill="none" xmlns="http://www.w3.org/2000/svg">
<path d="M10.1973 9.7793L8.54492 9.63867C7.18555 9.63867 6.26562 10.2363 5.78516 11.4316V24H0.792969V4.98047H5.48633L5.62695 7.03711C6.41211 5.43164 7.49609 4.62891 8.87891 4.62891C9.44141 4.62891 9.89844 4.70508 10.25 4.85742L10.1973 9.7793ZM20.0938 24.3516C17.5391 24.3516 15.5469 23.5898 14.1172 22.0664C12.6875 20.543 11.9727 18.3633 11.9727 15.5273V14.0156C11.9727 11.0156 12.6289 8.70117 13.9414 7.07227C15.2539 5.44336 17.1348 4.62891 19.584 4.62891C21.9746 4.62891 23.7734 5.39648 24.9805 6.93164C26.1875 8.45508 26.8027 10.7168 26.8262 13.7168V16.1602H16.9297C17 17.5664 17.3105 18.5977 17.8613 19.2539C18.4121 19.8984 19.2617 20.2207 20.4102 20.2207C22.0742 20.2207 23.4629 19.6523 24.5762 18.5156L26.5273 21.5215C25.918 22.3652 25.0332 23.0508 23.873 23.5781C22.7129 24.0938 21.4531 24.3516 20.0938 24.3516ZM16.9648 12.6797H21.9395V12.2227C21.916 11.0859 21.7285 10.2246 21.377 9.63867C21.0254 9.05273 20.416 8.75977 19.5488 8.75977C18.6816 8.75977 18.0488 9.07031 17.6504 9.69141C17.2637 10.3125 17.0352 11.3086 16.9648 12.6797ZM38.6738 24C38.5332 23.707 38.3926 23.2148 38.252 22.5234C37.3613 23.7422 36.1543 24.3516 34.6309 24.3516C33.0371 24.3516 31.7129 23.8242 30.6582 22.7695C29.6152 21.7148 29.0938 20.3496 29.0938 18.6738C29.0938 16.6816 29.7266 15.1406 30.9922 14.0508C32.2695 12.9609 34.1035 12.4043 36.4941 12.3809H38.0059V10.8516C38.0059 9.99609 37.8594 9.39258 37.5664 9.04102C37.2734 8.68945 36.8457 8.51367 36.2832 8.51367C35.041 8.51367 34.4199 9.24023 34.4199 10.6934H29.4453C29.4453 8.93555 30.1016 7.48828 31.4141 6.35156C32.7383 5.20313 34.4082 4.62891 36.4238 4.62891C38.5098 4.62891 40.1211 5.17383 41.2578 6.26367C42.4062 7.3418 42.9805 8.88867 42.9805 10.9043V19.8516C43.0039 21.4922 43.2383 22.7754 43.6836 23.7012V24H38.6738ZM35.7383 20.4492C36.2891 20.4492 36.7578 20.3379 37.1445 20.1152C37.5312 19.8926 37.8184 19.6289 38.0059 19.3242V15.3691H36.8105C35.9668 15.3691 35.2988 15.6387 34.8066 16.1777C34.3262 16.7168 34.0859 17.4375 34.0859 18.3398C34.0859 19.7461 34.6367 20.4492 35.7383 20.4492ZM53.457 20.2207C54.8984 20.2207 55.6309 19.2832 55.6543 17.4082H60.3301C60.3066 19.4824 59.668 21.1582 58.4141 22.4355C57.1602 23.7129 55.543 24.3516 53.5625 24.3516C51.1133 24.3516 49.2441 23.5898 47.9551 22.0664C46.666 20.543 46.0098 18.2988 45.9863 15.334V13.8223C45.9863 10.834 46.6191 8.55469 47.8848 6.98438C49.1621 5.41406 51.043 4.62891 53.5273 4.62891C55.625 4.62891 57.2773 5.2793 58.4844 6.58008C59.6914 7.86914 60.3066 9.70312 60.3301 12.082H55.6543C55.6426 11.0156 55.4668 10.1953 55.127 9.62109C54.7871 9.04688 54.2246 8.75977 53.4395 8.75977C52.5723 8.75977 51.9512 9.07031 51.5762 9.69141C51.2012 10.3008 51.002 11.4902 50.9785 13.2598V15.1934C50.9785 16.7402 51.0547 17.8242 51.207 18.4453C51.3594 19.0547 51.6113 19.5059 51.9629 19.7988C52.3145 20.0801 52.8125 20.2207 53.457 20.2207ZM68.9258 0.304688V4.98047H71.4746V8.72461H68.9258V18.1641C68.9258 18.9141 69.0254 19.4297 69.2246 19.7109C69.4355 19.9922 69.834 20.1328 70.4199 20.1328C70.9004 20.1328 71.293 20.0918 71.5977 20.0098L71.5625 23.877C70.7188 24.1934 69.8047 24.3516 68.8203 24.3516C65.6094 24.3516 63.9863 22.5117 63.9512 18.832V8.72461H61.7539V4.98047H63.9512V0.304688H68.9258ZM74.6211 21.4688C74.6211 20.6719 74.8848 20.0156 75.4121 19.5C75.9512 18.9844 76.6484 18.7266 77.5039 18.7266C78.3359 18.7266 79.0273 18.9844 79.5781 19.5C80.1289 20.0039 80.4043 20.6602 80.4043 21.4688C80.4043 22.2891 80.123 22.9512 79.5605 23.4551C79.0098 23.9473 78.3242 24.1934 77.5039 24.1934C76.6719 24.1934 75.9805 23.9414 75.4297 23.4375C74.8906 22.9336 74.6211 22.2773 74.6211 21.4688ZM89.2461 4.98047L89.3867 6.86133C90.5117 5.37305 91.9824 4.62891 93.7988 4.62891C97.0684 4.62891 98.75 6.91992 98.8438 11.502V24H93.8516V11.8711C93.8516 10.793 93.6875 10.0137 93.3594 9.5332C93.043 9.04102 92.4805 8.79492 91.6719 8.79492C90.7695 8.79492 90.0664 9.25781 89.5625 10.1836V24H84.5703V4.98047H89.2461ZM110.094 24.3516C107.539 24.3516 105.547 23.5898 104.117 22.0664C102.688 20.543 101.973 18.3633 101.973 15.5273V14.0156C101.973 11.0156 102.629 8.70117 103.941 7.07227C105.254 5.44336 107.135 4.62891 109.584 4.62891C111.975 4.62891 113.773 5.39648 114.98 6.93164C116.188 8.45508 116.803 10.7168 116.826 13.7168V16.1602H106.93C107 17.5664 107.311 18.5977 107.861 19.2539C108.412 19.8984 109.262 20.2207 110.41 20.2207C112.074 20.2207 113.463 19.6523 114.576 18.5156L116.527 21.5215C115.918 22.3652 115.033 23.0508 113.873 23.5781C112.713 24.0938 111.453 24.3516 110.094 24.3516ZM106.965 12.6797H111.939V12.2227C111.916 11.0859 111.729 10.2246 111.377 9.63867C111.025 9.05273 110.416 8.75977 109.549 8.75977C108.682 8.75977 108.049 9.07031 107.65 9.69141C107.264 10.3125 107.035 11.3086 106.965 12.6797ZM133.49 15.6504L135.195 4.98047H139.959L136.021 24H131.891L129.201 12.9961L126.512 24H122.363L118.426 4.98047H123.207L124.895 15.668L127.426 4.98047H130.959L133.49 15.6504ZM150.84 18.9023C150.84 18.4805 150.635 18.0938 150.225 17.7422C149.826 17.3789 148.93 16.8926 147.535 16.2832C145.484 15.4512 144.072 14.5898 143.299 13.6992C142.537 12.8086 142.156 11.7012 142.156 10.377C142.156 8.71289 142.754 7.3418 143.949 6.26367C145.156 5.17383 146.75 4.62891 148.73 4.62891C150.816 4.62891 152.486 5.16797 153.74 6.24609C154.994 7.32422 155.621 8.77148 155.621 10.5879H150.646C150.646 9.04102 150.002 8.26758 148.713 8.26758C148.186 8.26758 147.752 8.43164 147.412 8.75977C147.072 9.08789 146.902 9.54492 146.902 10.1309C146.902 10.5527 147.09 10.9277 147.465 11.2559C147.84 11.5723 148.725 12.0293 150.119 12.627C152.146 13.377 153.576 14.2148 154.408 15.1406C155.252 16.0547 155.674 17.2441 155.674 18.709C155.674 20.4082 155.035 21.7734 153.758 22.8047C152.48 23.8359 150.805 24.3516 148.73 24.3516C147.336 24.3516 146.105 24.082 145.039 23.543C143.973 22.9922 143.135 22.2305 142.525 21.2578C141.928 20.2852 141.629 19.2363 141.629 18.1113H146.357C146.381 18.9785 146.58 19.6289 146.955 20.0625C147.342 20.4961 147.969 20.7129 148.836 20.7129C150.172 20.7129 150.84 20.1094 150.84 18.9023Z" fill="white"/>
</svg>
